<?xml version="1.0" encoding="UTF-8"?>
<svg width="94px" height="64px" viewBox="0 0 94 64" version="1.1" xmlns="http://www.w3.org/2000/svg" xmlns:xlink="http://www.w3.org/1999/xlink">
    <!-- Generator: Sketch 52.5 (67469) - http://www.bohemiancoding.com/sketch -->
    <title>gift card small</title>
    <desc>Created with Sketch.</desc>
    <defs>
        <linearGradient x1="1.70648464%" y1="0%" x2="96.4895173%" y2="96.4285714%" id="linearGradient-1">
            <stop stop-color="#A2F7FF" offset="0%"></stop>
            <stop stop-color="#8992E7" offset="100%"></stop>
        </linearGradient>
    </defs>
    <g id="10-My-account" stroke="none" stroke-width="1" fill="none" fill-rule="evenodd">
        <g id="09-MY-ACCOUNT---GiftCard-Copy" transform="translate(-52.000000, -334.000000)">
            <g id="gift-card-small" transform="translate(52.000000, 334.000000)">
                <rect id="Rectangle-9" fill="url(#linearGradient-1)" x="0" y="0" width="94" height="64" rx="1.91999977"></rect>
                <path d="M15.0907643,24.3633286 C14.7330528,24.5828328 14.383303,24.6920389 14.0398089,24.6920389 C13.6968835,24.6920389 13.3459964,24.5828328 12.9894222,24.3633286 C12.6317106,24.1438244 12.3058462,23.7605111 12.0129663,23.2128426 C11.7195177,22.6646282 11.4840764,21.9285792 11.3049363,21.0030578 C11.1269336,20.0786284 11.0370792,18.9112155 11.0370792,17.499727 C11.0370792,16.0887845 11.1269336,14.9208256 11.3049363,13.9963962 C11.4840764,13.0719668 11.7195177,12.3359179 12.0129663,11.7877034 C12.3058462,11.2400349 12.6317106,10.8556296 12.9894222,10.6372174 C13.3459964,10.4177132 13.6968835,10.3079611 14.0398089,10.3079611 C14.383303,10.3079611 14.7330528,10.4177132 15.0907643,10.6372174 C15.4484759,10.8556296 15.7732029,11.2400349 16.0666515,11.7877034 C16.3595314,12.3359179 16.5949727,13.0719668 16.7741128,13.9963962 C16.9526843,14.9208256 17.04197,16.0887845 17.04197,17.499727 C17.04197,18.9112155 16.9526843,20.0786284 16.7741128,21.0030578 C16.5949727,21.9285792 16.3595314,22.6646282 16.0666515,23.2128426 C16.016606,23.3062138 15.9642857,23.3881184 15.9125341,23.471661 C15.8738626,23.4143278 15.8283667,23.3597248 15.7965196,23.2991154 C15.669131,23.0523097 15.6054368,22.8000437 15.6054368,22.5401332 C15.6054368,21.7822431 15.8761374,21.2209239 16.4135578,20.8518074 C16.5073931,20.3194278 16.5739308,19.712788 16.6120337,19.0269739 C15.8755687,19.1383641 15.3426979,19.5293218 15.0424249,19.874959 C14.7085987,20.2577263 14.5425387,20.8387026 14.5425387,21.617888 C14.5425387,22.0547122 14.6414923,22.4751556 14.8399682,22.8786721 C15.0276388,23.2603473 15.2875341,23.5999782 15.6099864,23.9019329 C15.4450637,24.0974118 15.2721793,24.2519384 15.0907643,24.3633286 L15.0907643,24.3633286 Z M19.6431984,10.341815 L19.6431984,10.5465764 L20.9182211,10.8545375 L20.9182211,20.7977504 C20.9182211,21.4671836 20.850546,22.0410615 20.716333,22.5193841 C20.5809827,22.9977067 20.397293,23.3908485 20.1635578,23.6988097 C19.9298226,24.0056787 19.6568471,24.2317353 19.3452002,24.3753413 C19.0335532,24.5189473 18.7076888,24.5904772 18.3676069,24.5904772 C17.9427889,24.5904772 17.5606233,24.532598 17.2199727,24.4157475 C16.966333,24.3294747 16.7490901,24.2142623 16.5506142,24.0859452 C16.8821656,23.8254887 17.1943813,23.5147974 17.4815742,23.1407666 C17.9604186,22.5172 18.3471338,21.7369226 18.6400136,20.7977504 C18.9328935,19.8602162 19.0801865,18.7605111 19.0801865,17.499727 C19.0801865,16.2400349 18.9328935,15.1403298 18.6400136,14.2022496 C18.3471338,13.2636235 17.9604186,12.4833461 17.4815742,11.8592334 C17.0032985,11.2362127 16.4636033,10.7704488 15.8624886,10.4619417 C15.2625114,10.1539806 14.6545723,10 14.0398089,10 C13.4244768,10 12.8171065,10.1539806 12.2171292,10.4619417 C11.6165833,10.7704488 11.0768881,11.2362127 10.5980437,11.8592334 C10.1186306,12.4833461 9.73248408,13.2636235 9.43960419,14.2022496 C9.14672429,15.1403298 9,16.2400349 9,17.499727 C9,18.7605111 9.14672429,19.8602162 9.43960419,20.7977504 C9.73248408,21.7369226 10.1186306,22.5172 10.5980437,23.1407666 C11.0768881,23.7643333 11.6165833,24.2295512 12.2171292,24.5375123 C12.8171065,24.8465655 13.4244768,25 14.0398089,25 C14.6545723,25 15.2625114,24.8465655 15.8624886,24.5375123 C15.9716788,24.4818172 16.0757507,24.4152015 16.1803913,24.3491318 C16.3947907,24.4872775 16.6222702,24.6106804 16.8690855,24.7133341 C17.3303003,24.9044447 17.8290491,25 18.3676069,25 C19.0335532,25 19.6358053,24.9011685 20.1737944,24.7029595 C20.7123521,24.5047505 21.169586,24.2246369 21.5449272,23.8620727 C21.9202684,23.5006006 22.2108735,23.0594081 22.4161738,22.5401332 C22.6214741,22.0208584 22.7244086,21.4398821 22.7244086,20.7977504 L22.7244086,10.8545375 L24,10.5465764 L24,10.341815 L19.6431984,10.341815 Z" id="Fill-3" fill="#FFFFFF" opacity="0.6"></path>
            </g>
        </g>
    </g>
</svg>