<?xml version="1.0" encoding="UTF-8"?>
<svg width="308px" height="210px" viewBox="0 0 308 210" version="1.1" xmlns="http://www.w3.org/2000/svg" xmlns:xlink="http://www.w3.org/1999/xlink">
    <!-- Generator: Sketch 52.5 (67469) - http://www.bohemiancoding.com/sketch -->
    <title>gift card</title>
    <desc>Created with Sketch.</desc>
    <defs>
        <linearGradient x1="1.70648464%" y1="0%" x2="96.4895173%" y2="96.4285714%" id="linearGradient-1">
            <stop stop-color="#A2F7FF" offset="0%"></stop>
            <stop stop-color="#8992E7" offset="100%"></stop>
        </linearGradient>
    </defs>
    <g id="10-My-account" stroke="none" stroke-width="1" fill="none" fill-rule="evenodd">
        <g id="09-MY-ACCOUNT---GiftCard" transform="translate(-45.000000, -652.000000)">
            <g id="Group-8" transform="translate(45.000000, 564.000000)">
                <g id="Group-2">
                    <g id="Group-7" transform="translate(0.000000, 88.000000)">
                        <g id="gift-card">
                            <rect id="Rectangle-9" fill="url(#linearGradient-1)" x="0" y="0" width="308" height="210" rx="6.29999971"></rect>
                            <path d="M51.1146497,81.6655382 C49.874583,82.470387 48.6621171,82.8708092 47.4713376,82.8708092 C46.2825296,82.8708092 45.0661207,82.470387 43.829997,81.6655382 C42.5899302,80.8606895 41.4602669,79.4552073 40.44495,77.4470897 C39.4276615,75.4369699 38.611465,72.7381238 37.9904459,69.3445452 C37.3733697,65.9549707 37.0618744,61.6744567 37.0618744,56.4989989 C37.0618744,51.3255433 37.3733697,47.0430272 37.9904459,43.6534527 C38.611465,40.2638783 39.4276615,37.5650322 40.44495,35.5549125 C41.4602669,33.5467948 42.5899302,32.1373084 43.829997,31.3364639 C45.0661207,30.5316152 46.2825296,30.1291908 47.4713376,30.1291908 C48.6621171,30.1291908 49.874583,30.5316152 51.1146497,31.3364639 C52.3547164,32.1373084 53.4804368,33.5467948 54.4977252,35.5549125 C55.5130422,37.5650322 56.3292387,40.2638783 56.9502578,43.6534527 C57.5693054,47.0430272 57.8788292,51.3255433 57.8788292,56.4989989 C57.8788292,61.6744567 57.5693054,65.9549707 56.9502578,69.3445452 C56.3292387,72.7381238 55.5130422,75.4369699 54.4977252,77.4470897 C54.3242342,77.7894507 54.1428571,78.0897674 53.9634516,78.3960904 C53.8293904,78.1858687 53.6716712,77.9856576 53.5612678,77.7634232 C53.1196542,76.8584689 52.8988474,75.9334935 52.8988474,74.9804885 C52.8988474,72.201558 53.8372763,70.1433876 55.7003336,68.7899603 C56.0256294,66.8379018 56.2562936,64.6135561 56.3883834,62.0989043 C53.8353048,62.507335 51.9880194,63.9408467 50.9470731,65.2081832 C49.7898089,66.6116632 49.2141341,68.7419097 49.2141341,71.5989225 C49.2141341,73.2006116 49.5571732,74.7422373 50.2452229,76.2217975 C50.8958144,77.6212733 51.796785,78.8665866 52.9146194,79.9737541 C52.3428875,80.69051 51.7435547,81.2571075 51.1146497,81.6655382 L51.1146497,81.6655382 Z M66.896421,30.2533217 L66.896421,31.0041134 L71.3164998,32.1333042 L71.3164998,68.5917513 C71.3164998,71.0463398 71.0818926,73.1505588 70.6166212,74.9044083 C70.1474067,76.6582578 69.5106157,78.0997779 68.7003336,79.2289687 C67.8900516,80.3541553 66.9437367,81.1830294 65.8633606,81.7095847 C64.7829845,82.2361399 63.6533212,82.4984165 62.4743706,82.4984165 C61.0016682,82.4984165 59.6768274,82.2861927 58.4959054,81.8577409 C57.6166212,81.5414073 56.8635123,81.1189618 56.1754625,80.6484657 C57.3248408,79.6934586 58.4071884,78.5542572 59.4027904,77.182811 C61.0627843,74.8963998 62.403397,72.0353828 63.418714,68.5917513 C64.4340309,65.1541262 64.9446466,61.121874 64.9446466,56.4989989 C64.9446466,51.8801281 64.4340309,47.8478759 63.418714,44.4082487 C62.403397,40.9666193 61.0627843,38.1056023 59.4027904,35.817189 C57.744768,33.53278 55.8738247,31.8249791 53.7899606,30.6937862 C51.7100394,29.5645954 49.6025174,29 47.4713376,29 C45.3381862,29 43.2326357,29.5645954 41.1527146,30.6937862 C39.070822,31.8249791 37.1998787,33.53278 35.5398847,35.817189 C33.8779193,38.1056023 32.5392781,40.9666193 31.5239612,44.4082487 C30.5086442,47.8478759 30,51.8801281 30,56.4989989 C30,61.121874 30.5086442,65.1541262 31.5239612,68.5917513 C32.5392781,72.0353828 33.8779193,74.8963998 35.5398847,77.182811 C37.1998787,79.4692221 39.070822,81.1750209 41.1527146,82.3042117 C43.2326357,83.4374067 45.3381862,84 47.4713376,84 C49.6025174,84 51.7100394,83.4374067 53.7899606,82.3042117 C54.1684865,82.0999964 54.529269,81.8557388 54.8920231,81.6134833 C55.6352745,82.1200175 56.4238702,82.5724946 57.2794965,82.9488916 C58.8783743,83.6496305 60.6073703,84 62.4743706,84 C64.7829845,84 66.8707916,83.6376179 68.7358204,82.9108514 C70.6028207,82.184085 72.1878981,81.1570019 73.489081,79.8276 C74.7902639,78.5022023 75.7976949,76.8844964 76.5094025,74.9804885 C77.2211101,73.0764807 77.5779497,70.9462342 77.5779497,68.5917513 L77.5779497,32.1333042 L82,31.0041134 L82,30.2533217 L66.896421,30.2533217 Z" id="Fill-3" fill="#FFFFFF" opacity="0.5"></path>
                        </g>
                    </g>
                </g>
            </g>
        </g>
    </g>
</svg>