<svg xmlns="http://www.w3.org/2000/svg" viewBox="0 0 58 13"><path d="M6.23,4.92A7.69,7.69,0,0,1,6,7.08a5,5,0,0,1-.72,1.54,3.05,3.05,0,0,1-1,.92,2.33,2.33,0,0,1-1.13.3A2.33,2.33,0,0,1,2,9.53a3.05,3.05,0,0,1-1-.92A5,5,0,0,1,.27,7.08,7.69,7.69,0,0,1,0,4.92,7.69,7.69,0,0,1,.27,2.75,5,5,0,0,1,1,1.22,3.05,3.05,0,0,1,2,.3,2.33,2.33,0,0,1,3.12,0,2.33,2.33,0,0,1,4.24.3a3.05,3.05,0,0,1,1,.92A5,5,0,0,1,6,2.75,7.69,7.69,0,0,1,6.23,4.92ZM5,4.92a13.17,13.17,0,0,0-.17-2.3,5.45,5.45,0,0,0-.44-1.45,1.89,1.89,0,0,0-.6-.75A1.19,1.19,0,0,0,3.12.2a1.19,1.19,0,0,0-.65.22,1.89,1.89,0,0,0-.6.75,5.45,5.45,0,0,0-.44,1.45,13.17,13.17,0,0,0-.17,2.3,13.17,13.17,0,0,0,.17,2.3,5.45,5.45,0,0,0,.44,1.45,1.89,1.89,0,0,0,.6.75,1.19,1.19,0,0,0,.65.22,1.19,1.19,0,0,0,.65-.22,1.89,1.89,0,0,0,.6-.75,5.45,5.45,0,0,0,.44-1.45A13.17,13.17,0,0,0,5,4.92ZM8,9.3V3.77l-.8-.2V3.44H9.08v.81a1.91,1.91,0,0,1,.36-.5,2.08,2.08,0,0,1,.48-.35,1.4,1.4,0,0,1,.69-.16,1.81,1.81,0,0,1,1.33.56,1.83,1.83,0,0,1,.39.63,2.34,2.34,0,0,1,.14.83v4l.8.2v.13H10.67V9.5l.73-.2v-4a2.32,2.32,0,0,0-.3-1.35.86.86,0,0,0-.7-.4.89.89,0,0,0-.57.19,2.28,2.28,0,0,0-.41.42,3.07,3.07,0,0,0-.34.61V9.3l.73.2v.13H7.23V9.5Zm6.76,0V.54L14,.34V.2h1.86V9.3l.8.2v.13H14V9.5Zm5,1.48a10.1,10.1,0,0,1-.41,1.06,3.2,3.2,0,0,1-.42.69,1.34,1.34,0,0,1-.45.37A1.2,1.2,0,0,1,18,13h-.15l-.13,0-.12,0-.2-1,.12,0,.13,0h.15a1.8,1.8,0,0,0,1.16-.3,1.93,1.93,0,0,0,.56-.91l.37-1.15L17.63,3.77l-.8-.2V3.44h2.65v.13l-.73.2,1.68,4.3,1.37-4.16-.86-.34V3.44h2v.13l-.86.34ZM28,7.07a3.24,3.24,0,0,1-.19,1.15,2.45,2.45,0,0,1-.54.87,2.4,2.4,0,0,1-.86.55,3.1,3.1,0,0,1-1.13.2,2.3,2.3,0,0,1-.93-.19,2.59,2.59,0,0,1-.76-.5,2.34,2.34,0,0,1-.51-.71,1.94,1.94,0,0,1-.19-.83,1.77,1.77,0,0,1,.31-1.15A1.32,1.32,0,0,1,24,6l.93.81A1.34,1.34,0,0,0,23.6,8.22a1.12,1.12,0,0,0,.12.5,1.32,1.32,0,0,0,.34.43,1.77,1.77,0,0,0,.54.3,2.1,2.1,0,0,0,.72.11A1.35,1.35,0,0,0,26.44,9a2.35,2.35,0,0,0,.34-.77,4.43,4.43,0,0,0,.13-1.13V.54l-.8-.2V.2h2.72V.34l-.8.2Zm3-.54A6.93,6.93,0,0,0,31.15,8a3.3,3.3,0,0,0,.33.94,1.32,1.32,0,0,0,.46.51,1.07,1.07,0,0,0,.54.15,1.59,1.59,0,0,0,.65-.13,1.87,1.87,0,0,0,.54-.36,1.85,1.85,0,0,0,.39-.55,2.42,2.42,0,0,0,.21-.7h.2a2.54,2.54,0,0,1-.23.8,2.23,2.23,0,0,1-.46.64,2.09,2.09,0,0,1-.64.42,2,2,0,0,1-.79.15,2.13,2.13,0,0,1-1-.22,2.44,2.44,0,0,1-.8-.65,3.21,3.21,0,0,1-.56-1,4.38,4.38,0,0,1-.21-1.39A4.68,4.68,0,0,1,30,5.11a3.25,3.25,0,0,1,.52-1,2.24,2.24,0,0,1,.76-.63,2,2,0,0,1,1.82,0,2.24,2.24,0,0,1,.76.63,3.25,3.25,0,0,1,.52,1,4.67,4.67,0,0,1,.2,1.43Zm1.19-3.1a.73.73,0,0,0-.4.13,1.18,1.18,0,0,0-.37.45,3.3,3.3,0,0,0-.29.87A8.32,8.32,0,0,0,31,6.26h2.39a8.32,8.32,0,0,0-.14-1.38A3.3,3.3,0,0,0,33,4a1.18,1.18,0,0,0-.37-.45A.73.73,0,0,0,32.21,3.44ZM38,9.83h-.2l-2-6.06-.8-.2V3.44h2.65v.13l-.73.2L38.3,8l1.47-4.76H40L41.67,8l1.22-4.08L42,3.57V3.44h2v.13l-.86.34L41.36,9.83h-.2L39.45,5.07Zm7.62-3.3A6.93,6.93,0,0,0,45.73,8a3.3,3.3,0,0,0,.33.94,1.32,1.32,0,0,0,.46.51,1.07,1.07,0,0,0,.54.15,1.59,1.59,0,0,0,.65-.13,1.87,1.87,0,0,0,.54-.36,1.85,1.85,0,0,0,.39-.55,2.42,2.42,0,0,0,.21-.7h.2a2.54,2.54,0,0,1-.23.8,2.23,2.23,0,0,1-.46.64,2.09,2.09,0,0,1-.64.42,2,2,0,0,1-.79.15,2.13,2.13,0,0,1-1-.22,2.44,2.44,0,0,1-.8-.65,3.21,3.21,0,0,1-.56-1,4.38,4.38,0,0,1-.21-1.39,4.68,4.68,0,0,1,.2-1.43,3.25,3.25,0,0,1,.52-1,2.24,2.24,0,0,1,.76-.63,2,2,0,0,1,1.82,0,2.24,2.24,0,0,1,.76.63,3.25,3.25,0,0,1,.52,1,4.68,4.68,0,0,1,.2,1.43Zm1.19-3.1a.73.73,0,0,0-.4.13A1.18,1.18,0,0,0,46,4a3.3,3.3,0,0,0-.29.87,8.32,8.32,0,0,0-.14,1.38H48a8.32,8.32,0,0,0-.14-1.38A3.3,3.3,0,0,0,47.57,4a1.18,1.18,0,0,0-.37-.45A.73.73,0,0,0,46.8,3.44ZM50.91,9.3V.54l-.8-.2V.2H52V9.3l.8.2v.13H50.11V9.5Zm5,.54a2.33,2.33,0,0,1-.73-.1,1.8,1.8,0,0,1-.49-.24,1.52,1.52,0,0,1-.37-.34,1,1,0,0,1-.53.61h-.2l0-.36,0-.34q0-.18,0-.37t0-.4q0-.2,0-.36l0-.38h.2A3.25,3.25,0,0,0,54.59,9a1.66,1.66,0,0,0,1.22.53,1.23,1.23,0,0,0,.91-.35,1.17,1.17,0,0,0,.35-.86.91.91,0,0,0-.25-.63,2.7,2.7,0,0,0-.62-.49q-.37-.22-.8-.44a5.9,5.9,0,0,1-.8-.48A2.52,2.52,0,0,1,54,5.67a1.55,1.55,0,0,1-.25-.89,1.35,1.35,0,0,1,.13-.58,1.6,1.6,0,0,1,.36-.5,1.74,1.74,0,0,1,.56-.34,2,2,0,0,1,.73-.13,1.56,1.56,0,0,1,.6.11,2.74,2.74,0,0,1,.44.23,1.77,1.77,0,0,1,.34.34.87.87,0,0,1,.22-.38.87.87,0,0,1,.31-.23h.2q0,.18,0,.36t0,.35q0,.19,0,.36t0,.41q0,.21,0,.37t0,.36h-.2A3.41,3.41,0,0,0,56.73,4a1.43,1.43,0,0,0-1-.53,1,1,0,0,0-.76.3,1,1,0,0,0-.3.71.78.78,0,0,0,.25.58,3,3,0,0,0,.62.45q.37.21.82.42a4.79,4.79,0,0,1,.82.5,2.64,2.64,0,0,1,.62.67,1.7,1.7,0,0,1,.25.94,1.46,1.46,0,0,1-.15.64,1.86,1.86,0,0,1-.42.57,2.07,2.07,0,0,1-.65.4A2.25,2.25,0,0,1,55.95,9.83Z"/></svg>
