<svg xmlns="http://www.w3.org/2000/svg" viewBox="0 0 44 45.827">
  <path d="M17.866,43.882a5.709,5.709,0,0,1-3.083,1,5.7,5.7,0,0,1-3.081-1,8.823,8.823,0,0,1-2.864-3.515,25.06,25.06,0,0,1-2.077-6.751,60.468,60.468,0,0,1-.786-10.7,60.482,60.482,0,0,1,.786-10.7A25.071,25.071,0,0,1,8.838,5.462,8.8,8.8,0,0,1,11.7,1.947,5.7,5.7,0,0,1,14.783.941a5.711,5.711,0,0,1,3.083,1.006,8.811,8.811,0,0,1,2.863,3.515A25.136,25.136,0,0,1,22.8,12.209a60.322,60.322,0,0,1,.786,10.7,60.309,60.309,0,0,1-.786,10.7,25.125,25.125,0,0,1-2.075,6.751c-.147.285-.3.535-.452.791a5.9,5.9,0,0,1-.34-.527,5.159,5.159,0,0,1-.561-2.319,5.917,5.917,0,0,1,2.37-5.158,49.431,49.431,0,0,0,.582-5.575,7.588,7.588,0,0,0-4.6,2.591,8.156,8.156,0,0,0-1.466,5.325,8.918,8.918,0,0,0,.872,3.852,10.792,10.792,0,0,0,2.259,3.126,6.509,6.509,0,0,1-1.523,1.41ZM31.22,1.044V1.67l3.74.941V32.988a20.424,20.424,0,0,1-.592,5.26,10.956,10.956,0,0,1-1.621,3.6,6.436,6.436,0,0,1-2.4,2.067,6.548,6.548,0,0,1-2.868.657,9.955,9.955,0,0,1-3.366-.534,8.656,8.656,0,0,1-1.963-1.008,15.86,15.86,0,0,0,2.731-2.888,23.179,23.179,0,0,0,3.4-7.158,35.222,35.222,0,0,0,1.291-10.076,35.234,35.234,0,0,0-1.291-10.074,23.216,23.216,0,0,0-3.4-7.158A14.378,14.378,0,0,0,20.13,1.411,11.234,11.234,0,0,0,14.783,0,11.229,11.229,0,0,0,9.437,1.411,14.411,14.411,0,0,0,4.688,5.68a23.179,23.179,0,0,0-3.4,7.158A35.237,35.237,0,0,0,0,22.912,35.224,35.224,0,0,0,1.29,32.988a23.142,23.142,0,0,0,3.4,7.158,14.368,14.368,0,0,0,4.749,4.267,11.194,11.194,0,0,0,5.347,1.413,11.2,11.2,0,0,0,5.347-1.413c.32-.17.626-.374.932-.576a12.614,12.614,0,0,0,2.02,1.113,10.966,10.966,0,0,0,4.4.876,14.692,14.692,0,0,0,5.3-.907,10.987,10.987,0,0,0,6.578-6.608,14.9,14.9,0,0,0,.9-5.323V2.611L44,1.67V1.044Z" fill="#fff"/>
</svg>

