<?xml version="1.0" encoding="UTF-8"?>
<svg width="92px" height="22px" viewBox="0 0 92 22" version="1.1" xmlns="http://www.w3.org/2000/svg" xmlns:xlink="http://www.w3.org/1999/xlink">
    <!-- Generator: Sketch 49 (51002) - http://www.bohemiancoding.com/sketch -->
    <title>OnlyJewels</title>
    <desc>Created with Sketch.</desc>
    <defs></defs>
    <g id="Symbols" stroke="none" stroke-width="1" fill="none" fill-rule="evenodd">
        <g id="Footer3" transform="translate(-467.000000, -107.000000)" fill="#FFFFFF">
            <g id="Group-3" transform="translate(0.000000, 97.000000)">
                <path d="M477.347143,18.3 C477.347143,19.6493401 477.196811,20.8263283 476.896143,21.831 C476.595475,22.8356717 476.199479,23.6716633 475.708143,24.339 C475.216807,25.0063367 474.663146,25.5049984 474.047143,25.835 C473.43114,26.1650017 472.807813,26.33 472.177143,26.33 C471.546473,26.33 470.923146,26.1650017 470.307143,25.835 C469.69114,25.5049984 469.137479,25.0063367 468.646143,24.339 C468.154807,23.6716633 467.758811,22.8356717 467.458143,21.831 C467.157475,20.8263283 467.007143,19.6493401 467.007143,18.3 C467.007143,16.9506599 467.157475,15.7736717 467.458143,14.769 C467.758811,13.7643283 468.154807,12.9283367 468.646143,12.261 C469.137479,11.5936633 469.69114,11.0950017 470.307143,10.765 C470.923146,10.4349984 471.546473,10.27 472.177143,10.27 C472.807813,10.27 473.43114,10.4349984 474.047143,10.765 C474.663146,11.0950017 475.216807,11.5936633 475.708143,12.261 C476.199479,12.9283367 476.595475,13.7643283 476.896143,14.769 C477.196811,15.7736717 477.347143,16.9506599 477.347143,18.3 Z M475.257143,18.3 C475.257143,16.7893258 475.165477,15.5390049 474.982143,14.549 C474.798808,13.5589951 474.556811,12.7706696 474.256143,12.184 C473.955475,11.5973304 473.621811,11.1866678 473.255143,10.952 C472.888474,10.7173322 472.529144,10.6 472.177143,10.6 C471.825141,10.6 471.465811,10.7173322 471.099143,10.952 C470.732474,11.1866678 470.398811,11.5973304 470.098143,12.184 C469.797475,12.7706696 469.555477,13.5589951 469.372143,14.549 C469.188808,15.5390049 469.097143,16.7893258 469.097143,18.3 C469.097143,19.8106742 469.188808,21.0609951 469.372143,22.051 C469.555477,23.041005 469.797475,23.8293304 470.098143,24.416 C470.398811,25.0026696 470.732474,25.4133322 471.099143,25.648 C471.465811,25.8826678 471.825141,26 472.177143,26 C472.529144,26 472.888474,25.8826678 473.255143,25.648 C473.621811,25.4133322 473.955475,25.0026696 474.256143,24.416 C474.556811,23.8293304 474.798808,23.041005 474.982143,22.051 C475.165477,21.0609951 475.257143,19.8106742 475.257143,18.3 Z M479.845714,25.45 L479.845714,16.43 L478.525714,16.1 L478.525714,15.88 L481.605714,15.88 L481.605714,17.2 C481.752382,16.9066652 481.95038,16.6353346 482.199714,16.386 C482.405049,16.1806656 482.669046,15.9900009 482.991714,15.814 C483.314382,15.6379991 483.695712,15.55 484.135714,15.55 C484.575716,15.55 484.982712,15.6306659 485.356714,15.792 C485.730716,15.9533341 486.057046,16.1769986 486.335714,16.463 C486.614382,16.7490014 486.830713,17.0936647 486.984714,17.497 C487.138715,17.9003353 487.215714,18.3513308 487.215714,18.85 L487.215714,25.45 L488.535714,25.78 L488.535714,26 L484.245714,26 L484.245714,25.78 L485.455714,25.45 L485.455714,18.85 C485.455714,17.8086615 485.290716,17.0716688 484.960714,16.639 C484.630713,16.2063312 484.245716,15.99 483.805714,15.99 C483.439046,15.99 483.123715,16.0926656 482.859714,16.298 C482.595713,16.5033344 482.368382,16.7306654 482.177714,16.98 C481.957713,17.2733348 481.767048,17.6033315 481.605714,17.97 L481.605714,25.45 L482.815714,25.78 L482.815714,26 L478.525714,26 L478.525714,25.78 L479.845714,25.45 Z M490.594286,25.45 L490.594286,11.15 L489.274286,10.82 L489.274286,10.6 L492.354286,10.6 L492.354286,25.45 L493.674286,25.78 L493.674286,26 L489.274286,26 L489.274286,25.78 L490.594286,25.45 Z M498.482857,27.87 C498.248189,28.5593368 498.020858,29.1349977 497.800857,29.597 C497.580856,30.0590023 497.349858,30.4329986 497.107857,30.719 C496.865856,31.0050014 496.616525,31.2066661 496.359857,31.324 C496.103189,31.4413339 495.820859,31.5 495.512857,31.5 C495.424857,31.5 495.344191,31.4963334 495.270857,31.489 C495.197523,31.4816666 495.124191,31.4706667 495.050857,31.456 C494.977523,31.4413333 494.911524,31.4193335 494.852857,31.39 L494.522857,29.74 C494.581524,29.7693335 494.647523,29.7913333 494.720857,29.806 C494.794191,29.8206667 494.867523,29.8316666 494.940857,29.839 C495.014191,29.8463334 495.094857,29.85 495.182857,29.85 C496.062861,29.85 496.704522,29.6850017 497.107857,29.355 C497.511192,29.0249984 497.822856,28.5300033 498.042857,27.87 L498.658857,26 L494.852857,16.43 L493.532857,16.1 L493.532857,15.88 L497.932857,15.88 L497.932857,16.1 L496.722857,16.43 L499.516857,23.448 L501.782857,16.65 L500.352857,16.1 L500.352857,15.88 L503.652857,15.88 L503.652857,16.1 L502.222857,16.65 L498.482857,27.87 Z M511.651429,21.82 C511.651429,22.5093368 511.545096,23.1326639 511.332429,23.69 C511.119761,24.2473361 510.819097,24.7203314 510.430429,25.109 C510.04176,25.4976686 509.568765,25.7983323 509.011429,26.011 C508.454092,26.2236677 507.830765,26.33 507.141429,26.33 C506.584092,26.33 506.067098,26.2273344 505.590429,26.022 C505.113759,25.8166656 504.695764,25.545335 504.336429,25.208 C503.977093,24.870665 503.694763,24.4856688 503.489429,24.053 C503.284094,23.6203312 503.181429,23.1693357 503.181429,22.7 C503.181429,21.8639958 503.35376,21.2406687 503.698429,20.83 C504.043097,20.4193313 504.457426,20.1626672 504.941429,20.06 L506.481429,21.38 C505.014755,21.6000011 504.281429,22.3699934 504.281429,23.69 C504.281429,23.9686681 504.347428,24.2399987 504.479429,24.504 C504.611429,24.7680013 504.802094,25.0026656 505.051429,25.208 C505.300763,25.4133344 505.601427,25.5783327 505.953429,25.703 C506.30543,25.8276673 506.701426,25.89 507.141429,25.89 C507.49343,25.89 507.83076,25.8130008 508.153429,25.659 C508.476097,25.5049992 508.758427,25.2630016 509.000429,24.933 C509.24243,24.6029984 509.433095,24.1813359 509.572429,23.668 C509.711763,23.1546641 509.781429,22.5386703 509.781429,21.82 L509.781429,11.15 L508.461429,10.82 L508.461429,10.6 L512.971429,10.6 L512.971429,10.82 L511.651429,11.15 L511.651429,21.82 Z M516.13,20.94 C516.13,21.8786714 516.199666,22.6633302 516.339,23.294 C516.478334,23.9246698 516.661666,24.4343314 516.889,24.823 C517.116334,25.2116686 517.372999,25.4866659 517.659,25.648 C517.945001,25.8093341 518.241998,25.89 518.55,25.89 C518.931335,25.89 519.290665,25.8166674 519.628,25.67 C519.965335,25.5233326 520.265999,25.3253346 520.53,25.076 C520.794001,24.8266654 521.010332,24.5260018 521.179,24.174 C521.347668,23.8219982 521.461333,23.4406687 521.52,23.03 L521.85,23.03 C521.791333,23.4993357 521.663001,23.9356646 521.465,24.339 C521.266999,24.7423353 521.014002,25.0906652 520.706,25.384 C520.397998,25.6773348 520.042335,25.9083325 519.639,26.077 C519.235665,26.2456675 518.799336,26.33 518.33,26.33 C517.772664,26.33 517.244669,26.2090012 516.746,25.967 C516.247331,25.7249988 515.803669,25.3730023 515.415,24.911 C515.026331,24.4489977 514.718334,23.8843367 514.491,23.217 C514.263666,22.5496633 514.15,21.7906709 514.15,20.94 C514.15,20.0599956 514.259999,19.28267 514.48,18.608 C514.700001,17.93333 514.989665,17.3723356 515.349,16.925 C515.708335,16.4776644 516.126331,16.1366678 516.603,15.902 C517.079669,15.6673322 517.581997,15.55 518.11,15.55 C518.638003,15.55 519.140331,15.6673322 519.617,15.902 C520.093669,16.1366678 520.511665,16.4776644 520.871,16.925 C521.230335,17.3723356 521.519999,17.93333 521.74,18.608 C521.960001,19.28267 522.07,20.0599956 522.07,20.94 L516.13,20.94 Z M518.11,15.88 C517.889999,15.88 517.670001,15.949666 517.45,16.089 C517.229999,16.228334 517.024668,16.4739982 516.834,16.826 C516.643332,17.1780018 516.485667,17.650997 516.361,18.245 C516.236333,18.839003 516.159333,19.5906621 516.13,20.5 L520.09,20.5 C520.060667,19.5906621 519.983667,18.839003 519.859,18.245 C519.734333,17.650997 519.576668,17.1780018 519.386,16.826 C519.195332,16.4739982 518.990001,16.228334 518.77,16.089 C518.549999,15.949666 518.330001,15.88 518.11,15.88 Z M526.988571,26.33 L526.658571,26.33 L523.358571,16.43 L522.038571,16.1 L522.038571,15.88 L526.438571,15.88 L526.438571,16.1 L525.228571,16.43 L527.516571,23.316 L529.958571,15.55 L530.288571,15.55 L533.104571,23.316 L535.128571,16.65 L533.698571,16.1 L533.698571,15.88 L536.998571,15.88 L536.998571,16.1 L535.568571,16.65 L532.598571,26.33 L532.268571,26.33 L529.430571,18.542 L526.988571,26.33 Z M538.947143,20.94 C538.947143,21.8786714 539.016809,22.6633302 539.156143,23.294 C539.295477,23.9246698 539.478808,24.4343314 539.706143,24.823 C539.933477,25.2116686 540.190141,25.4866659 540.476143,25.648 C540.762144,25.8093341 541.059141,25.89 541.367143,25.89 C541.748478,25.89 542.107808,25.8166674 542.445143,25.67 C542.782478,25.5233326 543.083142,25.3253346 543.347143,25.076 C543.611144,24.8266654 543.827475,24.5260018 543.996143,24.174 C544.16481,23.8219982 544.278476,23.4406687 544.337143,23.03 L544.667143,23.03 C544.608476,23.4993357 544.480144,23.9356646 544.282143,24.339 C544.084142,24.7423353 543.831144,25.0906652 543.523143,25.384 C543.215141,25.6773348 542.859478,25.9083325 542.456143,26.077 C542.052808,26.2456675 541.616479,26.33 541.147143,26.33 C540.589807,26.33 540.061812,26.2090012 539.563143,25.967 C539.064474,25.7249988 538.620812,25.3730023 538.232143,24.911 C537.843474,24.4489977 537.535477,23.8843367 537.308143,23.217 C537.080808,22.5496633 536.967143,21.7906709 536.967143,20.94 C536.967143,20.0599956 537.077142,19.28267 537.297143,18.608 C537.517144,17.93333 537.806808,17.3723356 538.166143,16.925 C538.525478,16.4776644 538.943474,16.1366678 539.420143,15.902 C539.896812,15.6673322 540.39914,15.55 540.927143,15.55 C541.455146,15.55 541.957474,15.6673322 542.434143,15.902 C542.910812,16.1366678 543.328808,16.4776644 543.688143,16.925 C544.047478,17.3723356 544.337142,17.93333 544.557143,18.608 C544.777144,19.28267 544.887143,20.0599956 544.887143,20.94 L538.947143,20.94 Z M540.927143,15.88 C540.707142,15.88 540.487144,15.949666 540.267143,16.089 C540.047142,16.228334 539.841811,16.4739982 539.651143,16.826 C539.460475,17.1780018 539.30281,17.650997 539.178143,18.245 C539.053476,18.839003 538.976476,19.5906621 538.947143,20.5 L542.907143,20.5 C542.877809,19.5906621 542.80081,18.839003 542.676143,18.245 C542.551476,17.650997 542.393811,17.1780018 542.203143,16.826 C542.012475,16.4739982 541.807144,16.228334 541.587143,16.089 C541.367142,15.949666 541.147144,15.88 540.927143,15.88 Z M547.275714,25.45 L547.275714,11.15 L545.955714,10.82 L545.955714,10.6 L549.035714,10.6 L549.035714,25.45 L550.355714,25.78 L550.355714,26 L545.955714,26 L545.955714,25.78 L547.275714,25.45 Z M555.164286,26.33 C554.69495,26.33 554.291621,26.2750005 553.954286,26.165 C553.616951,26.0549994 553.34562,25.9266674 553.140286,25.78 C552.890951,25.6186659 552.68562,25.4353344 552.524286,25.23 C552.465619,25.4500011 552.34462,25.6553324 552.161286,25.846 C551.977952,26.0366676 551.80562,26.161333 551.644286,26.22 L551.314286,26.22 C551.328953,26.0293324 551.343619,25.8313344 551.358286,25.626 C551.372953,25.4499991 551.387619,25.263001 551.402286,25.065 C551.416953,24.866999 551.424286,24.6653344 551.424286,24.46 C551.424286,24.2399989 551.416953,24.0200011 551.402286,23.8 C551.387619,23.5799989 551.372953,23.3820009 551.358286,23.206 L551.314286,22.59 L551.644286,22.59 C551.922954,23.6460053 552.348283,24.4599971 552.920286,25.032 C553.492289,25.6040029 554.166949,25.89 554.944286,25.89 C555.560289,25.89 556.062617,25.6993352 556.451286,25.318 C556.839954,24.9366648 557.034286,24.4673361 557.034286,23.91 C557.034286,23.513998 556.898621,23.1693348 556.627286,22.876 C556.355951,22.5826652 556.014955,22.3150012 555.604286,22.073 C555.193617,21.8309988 554.753622,21.5926678 554.284286,21.358 C553.81495,21.1233322 553.374955,20.8593348 552.964286,20.566 C552.553617,20.2726652 552.212621,19.928002 551.941286,19.532 C551.669951,19.135998 551.534286,18.6520029 551.534286,18.08 C551.534286,17.7573317 551.607618,17.4420015 551.754286,17.134 C551.900953,16.8259985 552.102618,16.5546678 552.359286,16.32 C552.615954,16.0853322 552.927617,15.898334 553.294286,15.759 C553.660954,15.619666 554.064284,15.55 554.504286,15.55 C554.885621,15.55 555.219284,15.6086661 555.505286,15.726 C555.791287,15.8433339 556.036951,15.9679993 556.242286,16.1 C556.462287,16.2613341 556.652952,16.4446656 556.814286,16.65 C556.872953,16.4299989 556.993952,16.2246676 557.177286,16.034 C557.36062,15.8433324 557.532952,15.718667 557.694286,15.66 L558.024286,15.66 C557.994952,15.8506676 557.972953,16.0486656 557.958286,16.254 C557.943619,16.4300009 557.932619,16.6206656 557.925286,16.826 C557.917952,17.0313344 557.914286,17.2293324 557.914286,17.42 C557.914286,17.6400011 557.917952,17.8636655 557.925286,18.091 C557.932619,18.3183345 557.943619,18.5199991 557.958286,18.696 C557.972953,18.9013344 557.994952,19.0993324 558.024286,19.29 L557.694286,19.29 C557.415618,18.2339947 557.004955,17.4200029 556.462286,16.848 C555.919616,16.2759971 555.340289,15.99 554.724286,15.99 C554.225617,15.99 553.807621,16.1549984 553.470286,16.485 C553.132951,16.8150017 552.964286,17.1999978 552.964286,17.64 C552.964286,18.0066685 553.103618,18.3219987 553.382286,18.586 C553.660954,18.8500013 554.005617,19.0956655 554.416286,19.323 C554.826955,19.5503345 555.27795,19.7813322 555.769286,20.016 C556.260622,20.2506678 556.711617,20.5219985 557.122286,20.83 C557.532955,21.1380015 557.877618,21.5046645 558.156286,21.93 C558.434954,22.3553355 558.574286,22.8686637 558.574286,23.47 C558.574286,23.8220018 558.489953,24.1703316 558.321286,24.515 C558.152618,24.8596684 557.917954,25.1676653 557.617286,25.439 C557.316618,25.7103347 556.957288,25.9266659 556.539286,26.088 C556.121284,26.2493341 555.662955,26.33 555.164286,26.33 Z" id="OnlyJewels"></path>
            </g>
        </g>
    </g>
</svg>