<?xml version="1.0" encoding="UTF-8"?>
<svg width="142px" height="93px" viewBox="0 0 142 93" version="1.1" xmlns="http://www.w3.org/2000/svg" xmlns:xlink="http://www.w3.org/1999/xlink">
    <!-- Generator: Sketch 49.2 (51160) - http://www.bohemiancoding.com/sketch -->
    <title>1</title>
    <desc>Created with Sketch.</desc>
    <defs>
        <rect id="path-1" x="0" y="0" width="142" height="93" rx="7"></rect>
    </defs>
    <g id="05-Design-Your-Jewel" stroke="none" stroke-width="1" fill="none" fill-rule="evenodd">
        <g id="04-DYJ---RingSize-5" transform="translate(-362.000000, -559.000000)">
            <g id="1" transform="translate(362.000000, 559.000000)">
                <mask id="mask-2" fill="white">
                    <use xlink:href="#path-1"></use>
                </mask>
                <use id="Rectangle" fill="#FFFFFF" xlink:href="#path-1"></use>
                <path d="M10.6585395,93.3090727 L27.4173643,56.8495972 L34.3263424,49.7470668 L54.84493,19.2921516 C55.464786,18.3721242 56.6161549,17.9696776 57.6741813,18.3032221 L57.6741813,18.3032221 C58.7361002,18.6379937 59.4582292,19.6228091 59.4582292,20.7362469 L59.4582292,23.120058 L44.0759586,44.1433984" id="Path-14" stroke="#000000" stroke-width="0.5" stroke-linecap="round" mask="url(#mask-2)"></path>
                <path d="M68.6193351,57.375307 L68.6193351,57.375307 C70.978926,57.375307 73.2445521,56.4505983 74.9302606,54.7995211 L86.5907416,43.3785935 L109.107721,26.1719327 C110.189349,25.3453915 111.512834,24.8976 112.874116,24.8976 L112.874116,24.8976 C114.133529,24.8976 115.25778,25.6871413 115.685232,26.8717953 L116.020141,27.7999745 C116.688929,29.6534765 116.569372,31.7000185 115.68931,33.4630381 L115.37405,34.0945954 C114.258725,36.3289159 112.761347,38.3510329 110.949547,40.0696145 C98.3279562,52.0418225 90.3902167,60.1021708 87.1363297,64.25066 C81.9123979,70.910825 80.3088281,75.8316745 79.4183795,81.1690343 C78.8247471,84.7272741 79.9685696,88.9447956 82.8498472,93.8215987" id="Path-22" stroke="#000000" stroke-width="0.5" stroke-linecap="round" mask="url(#mask-2)"></path>
                <path d="M90.1402786,93.0880823 L101.744569,83.4215359 C103.934408,81.5973681 106.312937,80.0124684 108.839633,78.6938388 L112.285186,76.8956775 C113.920473,76.0422563 115.737748,75.5965782 117.582332,75.5965782 L118.134592,75.5965782 C119.590947,75.5965782 121.000094,76.1131476 122.111399,77.0544085 L122.47521,77.3625519 C123.336141,78.0917493 123.832594,79.1628364 123.832594,80.2910789 L123.832594,80.2910789 C123.832594,81.450614 123.487018,82.5838408 122.839989,83.5460653 L116.423653,93.0880823" id="Path-23" stroke="#000000" stroke-width="0.5" stroke-linecap="round" mask="url(#mask-2)"></path>
                <path d="M53.1307628,22.2434669 C53.542051,23.1821794 54.3215309,23.1821794 55.4692026,22.2434669 C56.6168742,21.3047545 57.3963542,20.029638 57.8076424,18.4181175" id="Path-24" stroke="#000000" stroke-width="0.5" mask="url(#mask-2)"></path>
                <path d="M73.6157207,8.36519304 L74.9302018,9.90609696 C75.6796398,10.7846276 76.9993692,10.8892779 77.8778998,10.1398399 C78.0180222,10.0203074 78.1417367,9.88278458 78.2458315,9.73084187 L78.2458315,9.73084187 C79.251191,8.26336213 79.7892018,6.52612172 79.7892018,4.74728941 L79.7892018,4.3018299" id="Path-25" stroke="#000000" stroke-width="0.5" mask="url(#mask-2)"></path>
                <path d="M93.2405836,11.8542579 L95.0270389,13.8663304 C95.9030382,14.8529624 97.4129992,14.942648 98.3996312,14.0666487 C98.4703077,14.0038973 98.5371981,13.9370069 98.5999495,13.8663304 L99.3047633,13.0725034 C100.001567,12.2876985 100.386405,11.2746277 100.386405,10.2251261 L100.386405,9.47219319 C100.386405,8.91269265 100.156994,8.3776629 99.7517016,7.99194424" id="Path-26" stroke="#000000" stroke-width="0.5" mask="url(#mask-2)"></path>
                <path d="M109.365519,26.7588225 L108.150927,27.7745814 C106.879235,28.8380923 106.710471,30.7311483 107.773982,32.0028402 C107.839014,32.080603 107.907945,32.1550215 107.980507,32.2258096 L109.147133,33.3639024 C110.059307,34.2537662 111.520146,34.2356807 112.41001,33.3235073 C112.477474,33.2543527 112.540527,33.1810294 112.598798,33.1039702 L113.256964,32.2335955 C113.866081,31.4280837 114.334516,30.5253159 114.642435,29.563516 L114.705666,29.3660129 C114.965979,28.5529132 114.943695,27.6756804 114.642435,26.8768459 L114.642435,26.8768459 C114.36251,26.1345831 113.652144,25.6432766 112.858852,25.6432766 L112.438329,25.6432766 C111.314934,25.6432766 110.227278,26.0381365 109.365519,26.7588225 Z" id="Path-27" stroke="#000000" stroke-width="0.5" mask="url(#mask-2)"></path>
                <path d="M113.502095,81.1371369 L113.502095,81.1371369 C113.502095,81.769546 113.729276,82.3809125 114.142252,82.8598619 L116.294168,85.3555514 C117.274613,86.4926248 118.991201,86.619597 120.128275,85.6391518 C120.193746,85.5826993 120.256486,85.523156 120.316283,85.4607248 L120.678875,85.082161 C121.786759,83.9254722 122.49172,82.4420901 122.68892,80.8526091 L122.831503,79.7033568 C122.930635,78.9043242 122.579923,78.1159559 121.920077,77.6545615 L121.920077,77.6545615 C121.221938,77.16639 120.390633,76.9045754 119.538747,76.9045754 L119.04876,76.9045754 C117.888704,76.9045754 116.767607,77.3231779 115.891437,78.083477 L114.242501,79.5143459 C113.772215,79.9224372 113.502095,80.5144758 113.502095,81.1371369 Z" id="Path-28" stroke="#000000" stroke-width="0.5" mask="url(#mask-2)"></path>
                <path d="M13.0607763,24.5648868 L46.5865399,39.6393547 L56.697959,27.085366 L19.8282425,12.2186374 C19.5721364,12.1153695 19.2808062,12.2392693 19.1775382,12.4953754 C19.1535757,12.5548027 19.1412593,12.618282 19.1412593,12.6823586 L19.1412593,14.3679988 C19.1412593,14.5535954 19.0384557,14.7239218 18.8742385,14.8104021 L15.2161446,16.7368338 C15.0519275,16.8233141 14.9491238,16.9936404 14.9491238,17.1792371 L14.9491238,19.6065959 C14.9491238,19.8827383 14.7252662,20.1065959 14.4491238,20.1065959 L13.2658215,20.1065959 C12.9896791,20.1065959 12.7658215,20.3304535 12.7658215,20.6065959 L12.7658215,24.1088643 C12.7658215,24.3056741 12.8812769,24.484177 13.0607763,24.5648868 Z" id="Path-29" stroke="#EAEAEA" stroke-width="0.5" fill="#FFFFFF" mask="url(#mask-2)"></path>
                <path d="M54.4038534,30.0710627 L59.4094822,23.4708421 L76.0607323,5.72492652 C77.2104753,4.49959852 78.9353789,3.99606587 80.5637716,4.41040239 L80.5637716,4.41040239 C82.1163997,4.80546096 83.2032095,6.20343367 83.2032095,7.80553391 L83.2032095,9.72789786 C83.2032095,11.4321331 82.6589685,13.0918352 81.649795,14.4651476 L55.5457927,49.9882241" id="Path-20" stroke="#000000" stroke-width="0.5" stroke-linecap="round" mask="url(#mask-2)"></path>
                <path d="M43.9550977,42.0189151 L44.5663245,42.0189151 C45.5811225,42.0189151 46.5665906,42.3593211 47.3650346,42.9856614 L55.8054318,49.6067406 C57.6125048,47.1658506 59.0024795,45.3549532 59.975356,44.1740484 C60.9482325,42.9931437 62.8782246,40.7605544 65.7653323,37.4762807 C62.6815419,36.045486 60.3622033,34.8445273 58.8073166,33.8734046 C57.3259225,32.9481827 55.2042756,31.4299172 52.4423759,29.3186081 L52.4423874,29.3185931 C52.2229952,29.1508807 51.9091849,29.1927755 51.7414725,29.4121677 C51.736772,29.4183166 51.732215,29.4245737 51.727805,29.4309342 L43.544201,41.2340223 C43.386859,41.4609542 43.4432728,41.7724698 43.6702048,41.9298118 C43.7538812,41.9878283 43.853276,42.0189151 43.9550977,42.0189151 Z" id="Path-30" stroke="#EAEAEA" stroke-width="0.5" fill="#FFFFFF" mask="url(#mask-2)"></path>
                <path d="M55.5188491,49.9868926 C59.7572519,44.0117746 65.8901345,37.0820066 73.9174971,29.1975886 C81.2188482,22.0262538 88.795482,15.192376 96.6473986,8.69595521 L96.6474152,8.69597527 C98.0094061,7.56910816 99.9762815,7.55623391 101.352907,8.6651753 L101.352907,8.6651753 C102.800138,9.83099254 103.478439,11.7052417 103.112519,13.5272484 L102.874449,14.712635 C102.540736,16.374271 101.790181,17.9238306 100.693265,19.2157962 C81.0717278,42.3263802 70.9714358,54.2440498 70.3923893,54.9688049 C69.7971124,55.7138745 69.6225357,56.6977617 69.868659,57.9204665" id="Path-21" stroke="#000000" stroke-width="0.5" stroke-linecap="round" mask="url(#mask-2)"></path>
            </g>
        </g>
    </g>
</svg>